<svg width="61" height="60" viewBox="0 0 61 60" fill="none" xmlns="http://www.w3.org/2000/svg">
<rect x="0.626953" width="59.9537" height="60" rx="29.9769" fill="#DAF070"/>
<path d="M30.3183 15C26.143 15 22.8241 18.3214 22.8241 22.5V23.5714C21.0041 23.5714 19.6123 24.9643 19.6123 26.7857V34.2857C19.6123 40.1786 24.43 45 30.3183 45C36.2066 45 41.0244 40.1786 41.0244 34.2857V26.7857C41.0244 24.9643 39.6326 23.5714 37.8125 23.5714V22.5C37.8125 18.3214 34.4937 15 30.3183 15ZM38.8832 26.7857V34.2857C38.8832 39 35.029 42.8571 30.3183 42.8571C25.6077 42.8571 21.7535 39 21.7535 34.2857V26.7857C21.7535 26.1429 22.1818 25.7143 22.8241 25.7143H23.8947H36.7419H37.8125C38.4549 25.7143 38.8832 26.1429 38.8832 26.7857ZM24.9653 23.5714V22.5C24.9653 19.5 27.3206 17.1429 30.3183 17.1429C33.316 17.1429 35.6713 19.5 35.6713 22.5V23.5714H24.9653Z" fill="#12141D"/>
<path d="M29.4629 31.8217H32.9959C33.6382 31.8217 34.0665 31.3931 34.0665 30.7503C34.0665 30.1074 33.6382 29.6789 32.9959 29.6789H31.39V28.9289C31.39 28.286 30.9617 27.8574 30.3194 27.8574C29.677 27.8574 29.2488 28.286 29.2488 28.9289V29.6789C27.7499 29.786 26.5723 30.9646 26.5723 32.4646C26.5723 34.0717 27.857 35.3574 29.4629 35.3574H31.2829C31.7112 35.3574 32.0323 35.6789 32.0323 36.1074C32.0323 36.536 31.7112 36.8574 31.2829 36.8574H27.7499C27.1076 36.8574 26.6793 37.286 26.6793 37.9289C26.6793 38.5717 27.1076 39.0003 27.7499 39.0003H29.2488V39.6431C29.2488 40.286 29.677 40.7146 30.3194 40.7146C30.9617 40.7146 31.39 40.286 31.39 39.6431V38.8931C32.8888 38.786 34.0665 37.6074 34.0665 36.1074C34.0665 34.5003 32.7818 33.2146 31.1759 33.2146H29.3558C28.9276 33.2146 28.6064 32.8931 28.6064 32.4646C28.7135 32.1431 29.0347 31.8217 29.4629 31.8217Z" fill="#12141D"/>
</svg>
