<svg width="61" height="60" viewBox="0 0 61 60" fill="none" xmlns="http://www.w3.org/2000/svg">
<rect x="0.267578" width="59.9537" height="60" rx="29.9769" fill="#DAF070"/>
<path d="M40.6181 29.4275C40.3252 29.4275 40.0444 29.3111 39.8373 29.1038C39.6302 28.8966 39.5139 28.6155 39.5139 28.3225V25.2018C39.5139 20.7816 35.4328 17.2455 30.4153 17.2455C25.3978 17.2455 21.3167 20.8258 21.3167 25.2018V28.3225C21.3167 28.6155 21.2004 28.8966 20.9933 29.1038C20.7862 29.3111 20.5054 29.4275 20.2125 29.4275C19.9197 29.4275 19.6388 29.3111 19.4317 29.1038C19.2247 28.8966 19.1083 28.6155 19.1083 28.3225V25.2018C19.1083 19.5793 24.1876 15 30.4153 15C36.643 15 41.7223 19.5793 41.7223 25.2018V28.3225C41.7234 28.4679 41.6957 28.6121 41.6406 28.7467C41.5855 28.8813 41.5043 29.0036 41.4015 29.1065C41.2987 29.2093 41.1765 29.2907 41.042 29.3458C40.9075 29.4009 40.7634 29.4287 40.6181 29.4275Z" fill="#12141D"/>
<path d="M37.6321 39.8245C37.3392 39.8245 37.0583 39.7081 36.8513 39.5009C36.6442 39.2936 36.5279 39.0125 36.5279 38.7195V28.2259C36.537 27.939 36.6574 27.667 36.8635 27.4673C37.0696 27.2677 37.3452 27.1561 37.6321 27.1563C41.4393 27.1563 44.5399 30.0117 44.5399 33.5125C44.5399 37.0133 41.4393 39.8245 37.6321 39.8245ZM38.7363 29.4459V37.4995C39.703 37.3393 40.5859 36.853 41.2383 36.1213C41.8907 35.3896 42.2733 34.4565 42.3227 33.4771C42.2753 32.4962 41.8935 31.5611 41.241 30.8276C40.5884 30.094 39.7044 29.6064 38.7363 29.4459ZM23.1627 39.8245C19.3554 39.8245 16.2548 36.9779 16.2548 33.4771C16.2548 29.9763 19.3554 27.1563 23.1627 27.1563C23.4555 27.1563 23.7364 27.2727 23.9435 27.4799C24.1505 27.6871 24.2669 27.9682 24.2669 28.2613V38.7195C24.2669 39.0125 24.1505 39.2936 23.9435 39.5009C23.7364 39.7081 23.4555 39.8245 23.1627 39.8245ZM22.0585 29.4459C21.0903 29.6064 20.2063 30.094 19.5538 30.8276C18.9012 31.5611 18.5194 32.4962 18.472 33.4771C18.5214 34.4565 18.904 35.3896 19.5564 36.1213C20.2088 36.853 21.0917 37.3393 22.0585 37.4995V29.4459Z" fill="#12141D"/>
<path d="M37.271 43.4233H33.6139C33.321 43.4233 33.0402 43.3068 32.8331 43.0996C32.626 42.8924 32.5097 42.6113 32.5097 42.3182C32.5097 42.0251 32.626 41.7441 32.8331 41.5368C33.0402 41.3296 33.321 41.2132 33.6139 41.2132H37.271C37.8426 41.2132 38.3909 40.9859 38.7951 40.5814C39.1993 40.1769 39.4264 39.6282 39.4264 39.0561V38.5699C39.4264 38.2768 39.5427 37.9957 39.7498 37.7885C39.9569 37.5813 40.2377 37.4648 40.5306 37.4648C40.8234 37.4648 41.1043 37.5813 41.3114 37.7885C41.5184 37.9957 41.6348 38.2768 41.6348 38.5699V39.0561C41.6348 40.2144 41.175 41.3252 40.3567 42.1442C39.5383 42.9632 38.4283 43.4233 37.271 43.4233Z" fill="#12141D"/>
<path d="M31.7234 45.5006H29.5415C28.7403 45.5006 27.9719 45.1821 27.4053 44.6151C26.8387 44.0481 26.5204 43.2791 26.5204 42.4772V42.3534C26.5228 41.5531 26.8421 40.7864 27.4084 40.2213C27.9747 39.6562 28.7418 39.3389 29.5415 39.3389H31.7234C32.5223 39.3389 33.2885 39.6565 33.8534 40.2218C34.4183 40.7872 34.7357 41.5539 34.7357 42.3534V42.4772C34.7357 43.2775 34.4186 44.0452 33.8539 44.612C33.2893 45.1787 32.5231 45.4983 31.7234 45.5006ZM29.5592 41.549C29.3452 41.549 29.1398 41.6334 28.9876 41.784C28.8355 41.9347 28.7488 42.1393 28.7465 42.3534V42.4772C28.7465 42.6929 28.8321 42.8998 28.9845 43.0523C29.1369 43.2048 29.3437 43.2905 29.5592 43.2905H31.7234C31.9374 43.2882 32.1419 43.2015 32.2924 43.0492C32.4429 42.8969 32.5273 42.6914 32.5273 42.4772V42.3534C32.5273 42.1401 32.4426 41.9355 32.2918 41.7846C32.1411 41.6337 31.9366 41.549 31.7234 41.549H29.5592Z" fill="#12141D"/>
</svg>
