<svg width="50" height="18" viewBox="0 0 50 18" fill="none" xmlns="http://www.w3.org/2000/svg">
<path d="M7.04299 18C8.25215 18 9.31213 17.7815 10.2229 17.3446C11.1337 16.9077 11.8482 16.3069 12.3664 15.5423C12.8847 14.7776 13.1438 13.896 13.1438 12.8973C13.1438 10.5722 11.7462 8.96489 8.95095 8.07542L5.7239 7.06892C5.09576 6.86606 4.61681 6.58518 4.28703 6.22627C3.97297 5.85176 3.81593 5.42263 3.81593 4.93888C3.81593 4.29909 4.05933 3.78414 4.54614 3.39402C5.04865 2.9883 5.70819 2.78544 6.52477 2.78544C7.43557 2.78544 8.23645 3.02731 8.9274 3.51105C9.61835 3.97919 10.1366 4.6502 10.482 5.52406L13.1202 4.35371C12.6491 3.04291 11.8247 1.9896 10.6469 1.19376C9.48487 0.397919 8.11082 0 6.52477 0C5.37842 0 4.3577 0.218465 3.4626 0.655396C2.58321 1.07672 1.89226 1.6697 1.38975 2.43433C0.902947 3.19896 0.659544 4.08062 0.659544 5.07932C0.659544 6.21847 1.00502 7.20936 1.69597 8.05202C2.38692 8.87906 3.41549 9.51105 4.78169 9.94799L8.15008 11.0247C8.76251 11.2276 9.21791 11.4928 9.51627 11.8205C9.83034 12.1482 9.98738 12.5696 9.98738 13.0845C9.98738 13.7243 9.72827 14.2393 9.21006 14.6294C8.70755 15.0195 8.04015 15.2146 7.20787 15.2146C6.20285 15.2146 5.2999 14.9337 4.49903 14.3719C3.69816 13.7945 3.08572 13.0065 2.66173 12.0078L0 13.1547C0.314069 14.1222 0.808726 14.9727 1.48397 15.7061C2.17492 16.4239 2.9915 16.9857 3.93371 17.3914C4.89162 17.7971 5.92804 18 7.04299 18Z" fill="#1E1D25"/>
<path d="M19.5408 18C21.2054 18 22.5402 17.4538 23.5452 16.3615V17.7191H26.466V9.24577C26.466 8.35631 26.2383 7.56827 25.7829 6.88166C25.3275 6.19506 24.6994 5.6645 23.8985 5.28999C23.1134 4.89987 22.1947 4.70481 21.1426 4.70481C19.8549 4.70481 18.7085 5.0091 17.7035 5.61768C16.6985 6.22627 16.0076 7.02991 15.6307 8.02861L18.1511 9.24577C18.3866 8.6684 18.7557 8.20806 19.2582 7.86476C19.7607 7.50585 20.3496 7.3264 21.0248 7.3264C21.7315 7.3264 22.2968 7.51365 22.7208 7.88817C23.1605 8.24707 23.3803 8.69961 23.3803 9.24577V9.6671L19.5644 10.2757C18.0569 10.5254 16.9419 11.0013 16.2195 11.7035C15.4972 12.4057 15.136 13.2874 15.136 14.3485C15.136 15.472 15.5365 16.3615 16.3373 17.0169C17.1382 17.6723 18.206 18 19.5408 18ZM18.3395 14.2315C18.3395 13.342 18.9441 12.7802 20.1533 12.5462L23.3803 12.0078V12.5228C23.3803 13.3966 23.0741 14.1378 22.4617 14.7464C21.8649 15.355 21.0798 15.6593 20.1061 15.6593C19.5879 15.6593 19.1639 15.5345 18.8342 15.2848C18.5044 15.0195 18.3395 14.6684 18.3395 14.2315Z" fill="#1E1D25"/>
<path d="M29.318 17.7191H32.4038V10.6268C32.4038 9.6593 32.6707 8.91027 33.2046 8.37971C33.7543 7.83355 34.4609 7.56047 35.3246 7.56047H36.4317V4.84525H35.6779C34.8928 4.84525 34.2018 4.9857 33.6051 5.26658C33.0083 5.54746 32.5451 6.05462 32.2153 6.78804V4.9857H29.318V17.7191Z" fill="#1E1D25"/>
<path d="M38.1282 17.7191H41.2139V13.8335L42.8628 12.0546L46.4667 17.7191H50L45.1712 10.1118L49.9058 4.9857H46.0663L41.2139 10.0416V0H38.1282V17.7191Z" fill="#1E1D25"/>
</svg>
