<svg width="30" height="30" viewBox="0 0 30 30" fill="none" xmlns="http://www.w3.org/2000/svg">
<path d="M23.4437 18.3781C25.1831 18.3781 26.8513 17.6872 28.0813 16.4572C29.3112 15.2272 30.0022 13.5591 30.0022 11.8196C30.0022 10.0802 29.3112 8.41203 28.0813 7.18207C26.8513 5.95212 25.1831 5.26113 23.4437 5.26113C23.3126 5.26113 23.1767 5.26113 23.0455 5.26113C22.3636 3.6975 21.2402 2.36684 19.8131 1.43231C18.386 0.497782 16.7172 0 15.0114 0C13.3055 0 11.6367 0.497782 10.2096 1.43231C8.78251 2.36684 7.65912 3.6975 6.97719 5.26113C6.84602 5.26113 6.71017 5.26113 6.579 5.26113C4.83958 5.26113 3.1714 5.95212 1.94144 7.18207C0.71148 8.41203 0.0204965 10.0802 0.0204965 11.8196C0.0204965 13.5591 0.71148 15.2272 1.94144 16.4572C3.1714 17.6872 4.83958 18.3781 6.579 18.3781H8.92132V22.5006H6.97719C6.80994 21.665 6.34543 20.9183 5.66976 20.399C4.99409 19.8796 4.15306 19.6228 3.30252 19.6761C2.45198 19.7294 1.64959 20.0892 1.04404 20.6889C0.438498 21.2885 0.0708505 22.0873 0.00922705 22.9373C-0.0523965 23.7873 0.196182 24.6308 0.708901 25.3115C1.22162 25.9922 1.96371 26.464 2.79767 26.6394C3.63163 26.8149 4.50091 26.6821 5.24443 26.2656C5.98795 25.8491 6.5553 25.1773 6.84134 24.3745H9.85825C10.1067 24.3745 10.3451 24.2758 10.5208 24.1001C10.6965 23.9244 10.7952 23.686 10.7952 23.4376V18.3781H14.0744V23.1003C13.2553 23.3269 12.546 23.8428 12.0782 24.5524C11.6103 25.262 11.4155 26.1171 11.5298 26.9593C11.6442 27.8015 12.06 28.5737 12.7001 29.1328C13.3403 29.6919 14.1614 30 15.0114 30C15.8613 30 16.6824 29.6919 17.3226 29.1328C17.9627 28.5737 18.3785 27.8015 18.4929 26.9593C18.6073 26.1171 18.4124 25.262 17.9446 24.5524C17.4767 23.8428 16.7675 23.3269 15.9483 23.1003V18.3781H19.2275V23.4376C19.2275 23.686 19.3263 23.9244 19.502 24.1001C19.6777 24.2758 19.916 24.3745 20.1645 24.3745H23.1954C23.481 25.1721 24.0459 25.8393 24.7855 26.2525C25.5251 26.6658 26.3894 26.797 27.2184 26.622C28.0473 26.447 28.7848 25.9775 29.2943 25.3006C29.8038 24.6237 30.0507 23.7851 29.9895 22.9401C29.9282 22.0951 29.5629 21.3008 28.9611 20.7045C28.3593 20.1081 27.5618 19.75 26.7163 19.6964C25.8707 19.6427 25.0344 19.8973 24.3621 20.4129C23.6898 20.9284 23.2271 21.6701 23.0596 22.5006H21.1014V18.3781H23.4437ZM3.53398 24.843C3.20969 24.843 2.89269 24.7468 2.62305 24.5666C2.35342 24.3865 2.14326 24.1304 2.01916 23.8308C1.89506 23.5312 1.86259 23.2015 1.92586 22.8834C1.98913 22.5654 2.14528 22.2732 2.37459 22.0439C2.6039 21.8146 2.89605 21.6585 3.21411 21.5952C3.53216 21.5319 3.86184 21.5644 4.16144 21.6885C4.46104 21.8126 4.71712 22.0228 4.89728 22.2924C5.07744 22.562 5.17361 22.879 5.17361 23.2033C5.17361 23.6382 5.00086 24.0552 4.69337 24.3627C4.38588 24.6702 3.96884 24.843 3.53398 24.843ZM26.4887 21.5637C26.813 21.5637 27.13 21.6599 27.3997 21.84C27.6693 22.0202 27.8795 22.2763 28.0036 22.5759C28.1277 22.8755 28.1601 23.2051 28.0969 23.5232C28.0336 23.8413 27.8774 24.1334 27.6481 24.3627C27.4188 24.592 27.1267 24.7482 26.8086 24.8114C26.4906 24.8747 26.1609 24.8422 25.8613 24.7181C25.5617 24.594 25.3056 24.3839 25.1254 24.1143C24.9453 23.8446 24.8491 23.5276 24.8491 23.2033C24.8491 22.7685 25.0219 22.3514 25.3294 22.0439C25.6368 21.7364 26.0539 21.5637 26.4887 21.5637ZM16.651 26.4826C16.651 26.8069 16.5548 27.1239 16.3747 27.3935C16.1945 27.6631 15.9384 27.8733 15.6388 27.9974C15.3392 28.1215 15.0095 28.154 14.6915 28.0907C14.3734 28.0274 14.0813 27.8713 13.852 27.642C13.6227 27.4127 13.4665 27.1205 13.4032 26.8025C13.34 26.4844 13.3724 26.1547 13.4965 25.8551C13.6206 25.5555 13.8308 25.2994 14.1004 25.1193C14.3701 24.9391 14.6871 24.843 15.0114 24.843C15.4462 24.843 15.8633 25.0157 16.1707 25.3232C16.4782 25.6307 16.651 26.0477 16.651 26.4826ZM6.579 16.5043C5.33655 16.5043 4.145 16.0107 3.26646 15.1322C2.38791 14.2536 1.89435 13.0621 1.89435 11.8196C1.89435 10.5772 2.38791 9.38563 3.26646 8.50709C4.145 7.62855 5.33655 7.13499 6.579 7.13499C6.86037 7.13573 7.14107 7.16239 7.41755 7.21463C7.6426 7.25595 7.87499 7.2135 8.07089 7.09527C8.26679 6.97704 8.41265 6.79121 8.48097 6.57283C8.93923 5.20357 9.81631 4.01299 10.9882 3.16943C12.1601 2.32587 13.5674 1.872 15.0114 1.872C16.4553 1.872 17.8627 2.32587 19.0345 3.16943C20.2064 4.01299 21.0835 5.20357 21.5418 6.57283C21.6128 6.7886 21.7598 6.97121 21.9554 7.08668C22.151 7.20216 22.3819 7.24263 22.6052 7.20058C22.8821 7.15305 23.1628 7.13109 23.4437 7.13499C24.6862 7.13499 25.8777 7.62855 26.7563 8.50709C27.6348 9.38563 28.1284 10.5772 28.1284 11.8196C28.1284 13.0621 27.6348 14.2536 26.7563 15.1322C25.8777 16.0107 24.6862 16.5043 23.4437 16.5043H6.579Z" fill="#DAF070"/>
</svg>
