<svg width="34" height="30" viewBox="0 0 34 30" fill="none" xmlns="http://www.w3.org/2000/svg">
<path fill-rule="evenodd" clip-rule="evenodd" d="M31.287 12.4518C30.7632 12.4538 30.2527 12.6179 29.826 12.9217C29.3992 13.2256 29.077 13.6541 28.9037 14.1485H23.8242C23.7958 14.1471 23.7673 14.15 23.7397 14.1569L21.069 9.51741C21.0912 9.49395 21.111 9.46833 21.1281 9.44092L23.689 5.03888C23.8445 5.0729 24.0032 5.0899 24.1623 5.08959C24.7202 5.08701 25.2617 4.90124 25.7037 4.56086C26.1457 4.22047 26.4637 3.74432 26.6087 3.20562C26.7537 2.66692 26.7177 2.0955 26.5063 1.57924C26.2948 1.06298 25.9197 0.63047 25.4385 0.348211C25.0518 0.120397 24.6111 0.00044715 24.1623 0.000852172C23.7188 0.00161879 23.2832 0.118695 22.8991 0.340409C22.515 0.562123 22.1958 0.880713 21.9733 1.26437C21.7102 1.71924 21.5934 2.24402 21.6388 2.76753C21.6842 3.29103 21.8895 3.78791 22.2269 4.19075L19.666 8.5928C19.6491 8.61118 19.64 8.63543 19.6407 8.66041H14.1978C14.1931 8.63663 14.1845 8.6138 14.1724 8.5928L11.62 4.19075C11.8606 3.89717 12.0363 3.556 12.1356 3.18966C12.2345 2.81339 12.2458 2.41944 12.1685 2.03813C12.0913 1.65682 11.9275 1.29832 11.69 0.990223C11.4524 0.682123 11.1473 0.43264 10.7982 0.260969C10.4491 0.089297 10.0652 1.78171e-05 9.67615 1.02231e-06C9.22735 -0.000404 8.78664 0.119546 8.39995 0.34736C7.91782 0.629783 7.54202 1.06302 7.33054 1.58021C7.11906 2.09741 7.08365 2.66983 7.22977 3.20914C7.3759 3.74846 7.69544 4.2247 8.13909 4.56439C8.58274 4.90408 9.12584 5.08834 9.68461 5.08874C9.84095 5.08905 9.99684 5.07204 10.1494 5.03803L12.7103 9.44007C12.7254 9.47346 12.7487 9.50253 12.7779 9.52459L10.1072 14.1565C10.0768 14.1491 10.0455 14.1463 10.0142 14.1481H4.94323C4.74316 13.5822 4.34948 13.1053 3.83178 12.8016C3.31407 12.4979 2.70568 12.387 2.11411 12.4885C1.52255 12.59 0.985913 12.8973 0.599048 13.3562C0.212183 13.8151 0 14.396 0 14.9962C0 15.5964 0.212183 16.1773 0.599048 16.6362C0.985913 17.0951 1.52255 17.4024 2.11411 17.5039C2.70568 17.6054 3.31407 17.4945 3.83178 17.1908C4.34948 16.8871 4.74316 16.4102 4.94323 15.8443H10.0142C10.0455 15.8461 10.0768 15.8433 10.1072 15.8359L12.7779 20.467C12.7484 20.4888 12.7251 20.5179 12.7103 20.5515L10.1494 24.962C9.99686 24.9278 9.84097 24.9107 9.68461 24.9108C9.12606 24.9118 8.58331 25.0963 8.13999 25.4361C7.69667 25.7759 7.37739 26.252 7.23133 26.7911C7.08527 27.3302 7.12055 27.9024 7.33173 28.4195C7.5429 28.9366 7.91825 29.3699 8.39995 29.6526C8.78664 29.8805 9.22735 30.0004 9.67615 30C10.0659 29.9996 10.4503 29.9098 10.7998 29.7375C11.1494 29.5652 11.4547 29.3149 11.6923 29.006C11.9299 28.6971 12.0934 28.3378 12.1702 27.9557C12.2471 27.5737 12.2352 27.1791 12.1356 26.8023C12.0386 26.436 11.8594 26.0967 11.6116 25.8101L14.1724 21.408C14.1846 21.3869 14.1932 21.3639 14.1978 21.34H19.6407C19.6453 21.3639 19.6538 21.3869 19.666 21.408L22.2269 25.8101C21.9785 26.0951 21.8018 26.4353 21.7113 26.8023C21.6229 27.1258 21.6005 27.4637 21.6455 27.796C21.6905 28.1283 21.802 28.4482 21.9733 28.7365C22.1958 29.1201 22.515 29.4387 22.8991 29.6604C23.2832 29.8821 23.7188 29.9992 24.1623 30C24.6111 30.0004 25.0518 29.8805 25.4385 29.6526C25.9199 29.3705 26.2952 28.9379 26.5068 28.4216C26.7184 27.9052 26.7544 27.3337 26.6094 26.7949C26.4644 26.256 26.1463 25.7798 25.7042 25.4394C25.262 25.099 24.7203 24.9133 24.1623 24.9108C24.0031 24.9107 23.8444 24.9278 23.689 24.962L21.1281 20.5515C21.1111 20.524 21.0913 20.4983 21.069 20.475L23.7397 15.8354C23.7673 15.8424 23.7958 15.8453 23.8242 15.8439H28.9037C29.0606 16.281 29.3345 16.6667 29.6957 16.9588C30.0568 17.2508 30.4912 17.4381 30.9515 17.5001C31.4118 17.5621 31.8803 17.4965 32.3058 17.3105C32.7314 17.1244 33.0977 16.825 33.3647 16.445C33.6317 16.065 33.7892 15.6189 33.82 15.1555C33.8508 14.692 33.7537 14.2291 33.5393 13.817C33.325 13.405 33.0015 13.0598 32.6044 12.819C32.2072 12.5783 31.7515 12.4513 31.287 12.4518ZM23.427 2.12095C23.5017 1.99215 23.6089 1.88527 23.738 1.81109C23.8671 1.73691 24.0134 1.69803 24.1623 1.69837C24.3103 1.70031 24.4552 1.74085 24.5828 1.81599C24.7103 1.89113 24.816 1.99826 24.8894 2.12679C24.9628 2.25532 25.0014 2.4008 25.0014 2.54882C25.0013 2.69684 24.9626 2.84228 24.8891 2.97076C24.7727 3.16113 24.5873 3.29917 24.3715 3.35603C24.1557 3.41289 23.9263 3.38417 23.7313 3.27587C23.5396 3.16139 23.4004 2.97636 23.3435 2.76047C23.2866 2.54458 23.3166 2.31501 23.427 2.12095ZM10.1072 3.27459C9.9121 3.38289 9.6827 3.41162 9.46692 3.35477C9.25115 3.29791 9.0657 3.15987 8.94931 2.96949C8.8758 2.84101 8.83711 2.69556 8.83706 2.54754C8.83701 2.39952 8.8756 2.25406 8.94902 2.12553C9.02244 1.997 9.12815 1.88986 9.25568 1.81472C9.38321 1.73957 9.52814 1.69903 9.67615 1.69709C9.86306 1.69505 10.0454 1.75503 10.1946 1.86764C10.3437 1.98025 10.4514 2.13914 10.5007 2.31945C10.5499 2.49976 10.538 2.6913 10.4668 2.86413C10.3956 3.03696 10.2692 3.18131 10.1072 3.27459ZM2.55141 15.8469C2.38354 15.8474 2.21927 15.7982 2.07941 15.7054C1.93955 15.6125 1.83038 15.4803 1.76574 15.3253C1.70109 15.1704 1.68387 14.9998 1.71626 14.8351C1.74865 14.6704 1.82919 14.519 1.94769 14.4001C2.06618 14.2812 2.2173 14.2001 2.3819 14.1671C2.5465 14.1342 2.71718 14.1508 2.87233 14.2149C3.02747 14.279 3.16011 14.3877 3.25343 14.5272C3.34676 14.6668 3.39657 14.8309 3.39657 14.9987C3.39635 15.2231 3.30733 15.4382 3.14896 15.5972C2.9906 15.7561 2.77576 15.8458 2.55141 15.8469ZM10.4114 27.8824C10.2952 28.073 10.1098 28.2112 9.89396 28.2681C9.67815 28.325 9.44869 28.2963 9.25357 28.188C9.1572 28.1317 9.07287 28.057 9.00541 27.9681C8.93794 27.8793 8.88866 27.778 8.8604 27.67C8.83214 27.5621 8.82545 27.4496 8.8407 27.3391C8.85596 27.2285 8.89287 27.1221 8.94931 27.0259C9.02563 26.8991 9.13346 26.7942 9.2623 26.7214C9.39114 26.6486 9.53662 26.6104 9.68461 26.6105C9.83345 26.6096 9.97986 26.6483 10.1088 26.7225C10.2378 26.7968 10.3448 26.904 10.4187 27.0332C10.4927 27.1624 10.531 27.3089 10.5297 27.4578C10.5284 27.6066 10.4876 27.7524 10.4114 27.8803V27.8824ZM23.7313 26.7208C23.9261 26.6113 24.1559 26.5819 24.372 26.6388C24.5881 26.6958 24.7736 26.8346 24.8891 27.0259C24.9456 27.1221 24.9825 27.2285 24.9977 27.3391C25.013 27.4496 25.0063 27.5621 24.978 27.67C24.9498 27.778 24.9005 27.8793 24.833 27.9681C24.7656 28.057 24.6812 28.1317 24.5849 28.188C24.4576 28.2655 24.3114 28.3066 24.1623 28.3067C24.0134 28.3073 23.8669 28.2685 23.7378 28.1943C23.6087 28.1201 23.5015 28.0131 23.427 27.8841C23.3158 27.6885 23.2855 27.4572 23.3423 27.2396C23.3991 27.0219 23.5387 26.835 23.7313 26.7186V26.7208ZM19.5984 19.6467H14.2485L11.5778 14.9983L14.2485 10.3588H19.5984L22.2691 14.9983L19.5984 19.6467ZM31.287 15.8469C31.1192 15.8474 30.9549 15.7982 30.815 15.7054C30.6752 15.6125 30.566 15.4803 30.5014 15.3253C30.4367 15.1704 30.4195 14.9998 30.4519 14.8351C30.4843 14.6704 30.5648 14.519 30.6833 14.4001C30.8018 14.2812 30.9529 14.2001 31.1175 14.1671C31.2821 14.1342 31.4528 14.1508 31.6079 14.2149C31.7631 14.279 31.8957 14.3877 31.9891 14.5272C32.0824 14.6668 32.1322 14.8309 32.1322 14.9987C32.132 15.2231 32.043 15.4382 31.8846 15.5972C31.7262 15.7561 31.5114 15.8458 31.287 15.8469Z" fill="#DAF070"/>
</svg>
